#define 2_width 160
#define 2_height 49
static char 2_bits[] = {
 0x00,0x00,0x00,0x80,0x01,0x00,0x00,0x00,0x00,0x60,0x00,0x00,0x00,0x00,0x00,
 0x07,0x00,0x00,0x00,0x00,0x3e,0x08,0x00,0x80,0x01,0x18,0x00,0x00,0x00,0x60,
 0x00,0x00,0x80,0x07,0x80,0x21,0x00,0x00,0x00,0x00,0x66,0x0c,0x00,0x80,0x01,
 0x18,0x00,0x00,0x00,0x00,0x00,0x00,0xc0,0x0c,0x80,0x31,0x00,0x00,0x00,0x00,
 0xc6,0x3e,0x0f,0x8f,0x19,0x18,0x9b,0xe1,0xe1,0x63,0x6c,0xf8,0xc0,0x80,0xc7,
 0xff,0x06,0xe6,0xb1,0x79,0xc6,0x8c,0x99,0x99,0x09,0x18,0x77,0x33,0x33,0x63,
 0xdc,0xcc,0xc0,0xc1,0x8c,0x31,0x66,0x36,0xb3,0xcd,0xc6,0x0c,0x98,0x81,0x05,
 0x18,0x33,0x03,0x33,0x63,0xcc,0xcc,0x80,0xc7,0x8c,0x31,0x6c,0x03,0x73,0xcc,
 0xc6,0x0c,0x9f,0x81,0x07,0x18,0x33,0xe3,0x33,0x63,0xcc,0xcc,0x00,0xce,0x8c,
 0x31,0x6c,0xe3,0x33,0xfc,0xc6,0x8c,0x99,0x81,0x0d,0x18,0x33,0x33,0xb3,0x63,
 0xcc,0xec,0x00,0xcc,0x8c,0x31,0xfc,0x33,0x33,0x0c,0x66,0x8c,0x99,0x91,0x19,
 0x18,0x33,0x33,0x63,0x63,0xcc,0xd8,0xc0,0xcc,0x8c,0x31,0x98,0x31,0x33,0x8c,
 0x3e,0x38,0x37,0x8f,0x19,0x18,0x33,0xe3,0x06,0x63,0xcc,0xc0,0x80,0x87,0x87,
 0xe1,0x98,0xe1,0x36,0x78,0x00,0x00,0x00,0x00,0x00,0x00,0x00,0x00,0x30,0x03,
 0x00,0xcc,0x00,0x00,0x00,0x00,0x00,0x00,0x00,0x00,0x00,0x00,0x00,0x00,0x00,
 0x00,0x00,0x00,0xe0,0x01,0x00,0x78,0x00,0x00,0x00,0x00,0x00,0x00,0x00,0x00,
 0x00,0x00,0x00,0x00,0x00,0x00,0x00,0x00,0x00,0x00,0x00,0x00,0x00,0x00,0x00,
 0x00,0x00,0x00,0x00,0x00,0x00,0x00,0x00,0x00,0x00,0x00,0x00,0x00,0x00,0x00,
 0x00,0x00,0x00,0x00,0x00,0x00,0x00,0x00,0x00,0x00,0x3e,0xc0,0x03,0xc0,0x07,
 0x00,0x00,0x60,0x7c,0x18,0x3c,0x7c,0x00,0x00,0x00,0x00,0x00,0x00,0x00,0x00,
 0x66,0x60,0x06,0xc0,0x0c,0x00,0x00,0x70,0x7c,0x1e,0x66,0x7c,0x00,0x00,0x00,
 0x00,0x00,0x00,0x00,0x00,0x66,0x30,0x0c,0xc0,0x8c,0xc7,0x0c,0x68,0x04,0x18,
 0x66,0x04,0x00,0x00,0x00,0x00,0x00,0x00,0x00,0x00,0x66,0x30,0x0c,0xc0,0xc4,
 0xcc,0x0c,0x64,0x04,0x18,0x66,0x04,0x00,0x00,0x00,0x00,0x00,0x00,0x00,0x00,
 0x26,0x30,0x0c,0xc0,0xc3,0x8c,0x05,0x62,0x3c,0x18,0x7c,0x3c,0x00,0x00,0x00,
 0x00,0x00,0x00,0x00,0x00,0x1e,0x30,0x0c,0xc0,0xc4,0x0c,0x03,0xfe,0x60,0x18,
 0x60,0x60,0x00,0x00,0x00,0x00,0x00,0x00,0x00,0x00,0x06,0x30,0x0c,0xc0,0xcc,
 0x8c,0x06,0xfe,0x60,0x18,0x60,0x60,0x00,0x00,0x00,0x00,0x00,0x00,0x00,0x00,
 0x06,0x63,0xc6,0xc0,0xcc,0xcc,0x0c,0x60,0x66,0x18,0x66,0x66,0x00,0x00,0x00,
 0x00,0x00,0x00,0x00,0x00,0x06,0xc3,0xc3,0xc0,0x87,0xc7,0x0c,0x60,0x3c,0x18,
 0x3c,0x3c,0x00,0x00,0x00,0x00,0x00,0x00,0x00,0x00,0x00,0x00,0x00,0x00,0x00,
 0x00,0x00,0x00,0x00,0x00,0x00,0x00,0x00,0x00,0x00,0x00,0x00,0x00,0x00,0x00,
 0x00,0x00,0x00,0x00,0x00,0x00,0x00,0x00,0x00,0x00,0x00,0x00,0x00,0x00,0x00,
 0x00,0x00,0x00,0x00,0x00,0x00,0x00,0x00,0x00,0x00,0x00,0x00,0x00,0x00,0x00,
 0x00,0x00,0x00,0x00,0x00,0x00,0x00,0x00,0x00,0x00,0x00,0x00,0x00,0x63,0x00,
 0x00,0x00,0x00,0x00,0x00,0x00,0x00,0x00,0x00,0x00,0x00,0x00,0x00,0x00,0x00,
 0x8e,0x03,0x00,0x63,0x00,0x00,0x00,0x00,0x06,0xc6,0x00,0x00,0x00,0x00,0x00,
 0x00,0x00,0x00,0x00,0x00,0x8e,0x03,0x00,0x03,0x00,0x00,0x00,0x00,0x66,0xc6,
 0x00,0x00,0x00,0x00,0x00,0x00,0x00,0x00,0x00,0x00,0x8e,0xe3,0xe1,0x63,0x7c,
 0x3c,0x6c,0x00,0x66,0xc6,0x00,0x00,0x00,0x00,0x00,0x00,0x00,0x00,0x00,0x00,
 0x5a,0x33,0x33,0x63,0x06,0x66,0xdc,0x00,0x6c,0xc3,0x00,0x00,0x00,0x00,0x00,
 0x00,0x00,0x00,0x00,0x00,0x5a,0x03,0x33,0x63,0x0e,0x66,0xcc,0x00,0x6c,0xc3,
 0x00,0x00,0x00,0x00,0x00,0x00,0x00,0x00,0x00,0x00,0x5a,0xe3,0x33,0x63,0x3c,
 0x66,0xcc,0x00,0xfc,0xc3,0x00,0x00,0x00,0x00,0x00,0x00,0x00,0x00,0x00,0x00,
 0x32,0x33,0x33,0x63,0x70,0x66,0xcc,0x00,0x98,0xc1,0x00,0x00,0x00,0x00,0x00,
 0x00,0x00,0x00,0x00,0x00,0x32,0x33,0xb3,0x63,0x60,0x66,0xcc,0x0c,0x98,0xc1,
 0x00,0x00,0x00,0x00,0x00,0x00,0x00,0x00,0x00,0x00,0x02,0xe3,0x66,0x63,0x3e,
 0x3c,0xcc,0x0c,0x98,0xc1,0x00,0x00,0x00,0x00,0x00,0x00,0x00,0x00,0x00,0x00,
 0x00,0x00,0x00,0x00,0x00,0x00,0x00,0x08,0x00,0x00,0x00,0x00,0x00,0x00,0x00,
 0x00,0x00,0x00,0x00,0x00,0x00,0x00,0x00,0x00,0x00,0x00,0x00,0x04,0x00,0x00,
 0x00,0x00,0x00,0x00,0x00,0x00,0x00,0x00,0x00,0x00,0x00,0x00,0x00,0x00,0x00,
 0x00,0x00,0x00,0x00,0x00,0x00,0x00,0x00,0x00,0x00,0x00,0x00,0x00,0x00,0x00,
 0x00,0x00,0x00,0x00,0x00,0x00,0x00,0x00,0x00,0x00,0x00,0x00,0x00,0x00,0x00,
 0x00,0x00,0x00,0x00,0x00,0x3e,0x1e,0x3f,0x30,0x30,0x00,0x3e,0x0c,0x1e,0x3e,
 0x00,0x00,0x00,0x00,0x00,0x00,0x00,0x00,0x00,0x00,0x3e,0x33,0x3f,0x38,0x38,
 0x00,0x3e,0x0f,0x33,0x3e,0x00,0x00,0x00,0x00,0x00,0x00,0x00,0x00,0x00,0x00,
 0x02,0x30,0x30,0x34,0x34,0x00,0x02,0x0c,0x33,0x02,0x00,0x00,0x00,0x00,0x00,
 0x00,0x00,0x00,0x00,0x00,0x02,0x30,0x18,0x32,0x32,0x00,0x02,0x0c,0x33,0x02,
 0x00,0x00,0x00,0x00,0x00,0x00,0x00,0x00,0x00,0x00,0x1e,0x1c,0x18,0x31,0x31,
 0x7f,0x1e,0x0c,0x3e,0x1e,0x00,0x00,0x00,0x00,0x00,0x00,0x00,0x00,0x00,0x00,
 0x30,0x30,0x0c,0x7f,0x7f,0x00,0x30,0x0c,0x30,0x30,0x00,0x00,0x00,0x00,0x00,
 0x00,0x00,0x00,0x00,0x00,0x30,0x30,0x0c,0x7f,0x7f,0x00,0x30,0x0c,0x30,0x30,
 0x00,0x00,0x00,0x00,0x00,0x00,0x00,0x00,0x00,0x00,0x33,0x33,0x06,0x30,0x30,
 0x00,0x33,0x0c,0x33,0x33,0x00,0x00,0x00,0x00,0x00,0x00,0x00,0x00,0x00,0x00,
 0x1e,0x1e,0x06,0x30,0x30,0x00,0x1e,0x0c,0x1e,0x1e,0x00,0x00,0x00,0x00,0x00,
 0x00,0x00,0x00,0x00,0x00};
