#define 3_width 178
#define 3_height 23
static char 3_bits[] = {
 0x00,0x00,0x06,0x00,0x00,0x00,0x00,0x70,0x00,0x00,0x00,0x00,0x00,0x00,0x00,
 0x00,0x00,0x00,0x00,0x00,0x00,0x00,0x00,0x00,0x00,0x06,0x00,0x00,0x00,0x00,
 0x18,0x00,0x00,0x00,0x80,0x87,0x87,0x07,0x7e,0x3c,0x7e,0x00,0xe3,0xe1,0xe1,
 0x01,0x00,0x00,0x00,0x00,0x00,0x00,0x00,0x18,0x00,0x00,0x00,0xc2,0xcc,0xcc,
 0x0c,0x7e,0x66,0x7e,0x80,0x33,0x33,0x33,0x03,0x33,0x1e,0xc6,0xe3,0x01,0x1e,
 0x1b,0x7c,0x1e,0xb3,0x01,0xc2,0xc0,0xcc,0x0c,0x60,0x06,0x60,0x40,0x33,0x33,
 0x33,0x03,0x33,0x33,0x66,0x36,0x03,0x33,0x1b,0x18,0x33,0xb3,0x01,0xc2,0xc0,
 0xcc,0x0d,0x30,0x06,0x30,0x20,0x33,0x33,0x33,0x03,0x33,0x33,0x66,0x30,0x03,
 0x33,0x07,0x18,0x30,0x16,0xc0,0xdf,0xc7,0x8c,0x07,0x30,0x3e,0x30,0x10,0x33,
 0x33,0x33,0x03,0x16,0x33,0x66,0xf0,0x03,0x33,0x03,0x18,0x3e,0x0c,0x00,0xc2,
 0xcc,0xcc,0x0e,0x18,0x66,0x18,0xf0,0x37,0x33,0x33,0x03,0x16,0x33,0x66,0x30,
 0x00,0x33,0x03,0x18,0x33,0x1a,0x00,0xc2,0xcc,0xcc,0x0c,0x18,0x66,0x18,0xf0,
 0x37,0x33,0x33,0x03,0x0c,0x33,0x66,0x34,0x02,0x33,0x03,0x18,0x33,0xb3,0x01,
 0xc2,0xcc,0xcc,0xcc,0x0c,0x66,0x0c,0x06,0x33,0x33,0x33,0x03,0x0c,0x1e,0xc6,
 0xe3,0x01,0x1e,0x03,0x18,0x6e,0xb3,0x01,0x80,0x87,0x87,0xc7,0x0c,0x3c,0x0c,
 0x06,0xe3,0xe1,0xe1,0x01,0x00,0x00,0x00,0x00,0x00,0x00,0x00,0x00,0x00,0x00,
 0x00,0x00,0x00,0x00,0x00,0x00,0x00,0x00,0x00,0x00,0x00,0x00,0x00,0x00,0x00,
 0x00,0x00,0x00,0x00,0x00,0x00,0x00,0x00,0x00,0x00,0x00,0x00,0x00,0x00,0x00,
 0x00,0x00,0x00,0x00,0x00,0x00,0x00,0x00,0x00,0x00,0x00,0x00,0x00,0x00,0x00,
 0x00,0x00,0x00,0x00,0x00,0x00,0x00,0x00,0x00,0x00,0x00,0x00,0x00,0x00,0x00,
 0x00,0x00,0xc0,0x18,0x00,0x0c,0x00,0x00,0x18,0x00,0x00,0x03,0x00,0x00,0x06,
 0x00,0x00,0x00,0x00,0x00,0x00,0x00,0x00,0x00,0x00,0xc0,0x18,0x00,0x8c,0x00,
 0x00,0x18,0xf0,0x01,0x23,0x00,0x00,0x06,0x00,0x00,0x00,0x00,0x00,0x00,0x00,
 0x00,0x00,0x00,0x00,0x18,0x00,0xcc,0x00,0x00,0x18,0x18,0x03,0x33,0x00,0x00,
 0x06,0x00,0x00,0x00,0x00,0x00,0x00,0x00,0x1e,0x36,0xc3,0xc3,0x98,0x81,0xef,
 0xf3,0xf0,0x98,0xcd,0xe3,0xfb,0x3c,0x3c,0x66,0xf0,0x78,0xd8,0x0c,0x00,0x00,
 0x00,0x33,0xee,0x66,0xc6,0x98,0xc1,0xcc,0x98,0x99,0x99,0x6c,0x33,0x33,0x66,
 0x66,0x26,0x98,0xcd,0xb8,0x1b,0x00,0x00,0x00,0x33,0x66,0x06,0xc6,0x18,0xc0,
 0xcc,0x80,0x19,0x58,0x6c,0x33,0x33,0x60,0x06,0x16,0x18,0xcc,0x98,0x19,0x00,
 0x00,0x00,0x3f,0x66,0xc6,0xc7,0x18,0xc0,0xcc,0xf0,0x19,0x78,0x6c,0x33,0x33,
 0x7c,0x06,0x1e,0x18,0xcc,0x98,0x19,0x00,0x00,0x00,0x03,0x66,0x66,0xc6,0x18,
 0xc0,0xcc,0x98,0x19,0xd8,0xcc,0x36,0x33,0x66,0x06,0x36,0x18,0xcc,0x98,0x19,
 0x00,0x00,0x00,0x23,0x66,0x66,0xc6,0x98,0xc1,0xce,0x98,0x19,0x99,0x19,0xb0,
 0x33,0x66,0x46,0x66,0x1b,0xcd,0x98,0x19,0x00,0x00,0x00,0x1e,0x66,0xc6,0xcd,
 0x98,0x81,0x8d,0x73,0xf3,0x98,0xf1,0x63,0xe3,0xdc,0x3c,0x66,0xf3,0x78,0x98,
 0x19,0x00,0x00,0x00};
