#define head3col_width 587
#define head3col_height 25
static char head3col_bits[] = {
 0x00,0x00,0x00,0x80,0x01,0x00,0x00,0x00,0x00,0x60,0x00,0x00,0x00,0x00,0x00,
 0x07,0x00,0x00,0x00,0x00,0x00,0x00,0x00,0x00,0x00,0x00,0x80,0x31,0xc0,0x01,
 0x00,0x00,0x00,0x00,0x00,0x00,0x00,0x00,0x00,0x00,0x00,0x00,0x00,0x00,0x00,
 0x00,0x00,0x00,0x00,0x00,0x00,0x00,0x00,0x00,0x00,0x00,0x00,0x00,0x00,0x00,
 0x00,0x00,0x00,0x00,0x00,0x00,0x00,0x00,0x00,0x00,0x00,0x00,0x00,0xf8,0x3e,
 0x08,0x00,0x80,0x01,0x18,0x00,0x00,0x00,0x60,0x00,0x00,0x80,0x07,0x80,0x21,
 0x00,0x00,0x00,0x00,0x00,0x00,0x00,0x00,0x00,0x04,0x80,0x31,0x60,0x00,0x00,
 0x00,0x00,0x06,0x78,0x78,0x78,0xc0,0xc3,0x83,0x01,0x3f,0x3e,0x1e,0x1e,0x00,
 0x00,0x00,0x00,0x00,0x00,0x00,0x00,0x1f,0xe0,0x01,0x7c,0x00,0x00,0x00,0xc6,
 0x87,0xc1,0xc3,0x07,0x00,0x00,0x00,0x00,0x00,0x00,0x00,0x00,0xf8,0x66,0x0c,
 0x00,0x80,0x01,0x18,0x00,0x00,0x00,0x00,0x00,0x00,0xc0,0x0c,0x80,0x31,0x00,
 0x00,0x00,0x00,0x00,0x00,0x00,0x00,0x00,0x06,0x80,0x31,0x60,0x00,0x00,0x00,
 0x80,0x07,0xcc,0xcc,0xcc,0x60,0x66,0xe6,0x01,0x3f,0x3e,0x33,0x33,0x00,0x00,
 0x00,0x00,0x00,0x00,0x00,0x00,0x33,0x30,0x03,0xcc,0x00,0x00,0x00,0xc7,0xe7,
 0x61,0xc6,0x07,0x00,0x00,0x00,0x00,0x00,0x00,0x00,0x00,0xf8,0xc6,0x3e,0x0f,
 0x8f,0x19,0x18,0x9b,0xe1,0xe1,0x63,0x6c,0xf8,0xc0,0x80,0xc7,0xff,0x06,0xe6,
 0xb1,0x79,0x00,0x00,0x00,0x00,0x00,0x9f,0x87,0x31,0xf0,0x6d,0x1e,0x1e,0x03,
 0x06,0xcc,0xcc,0xcc,0x00,0x06,0x86,0x01,0x30,0x02,0x33,0x30,0x00,0x00,0x00,
 0x00,0x00,0x00,0x00,0x00,0x33,0x18,0x06,0xcc,0x78,0xcc,0x80,0x46,0x80,0x61,
 0x46,0x00,0x00,0x00,0x00,0x00,0x00,0x00,0x00,0x00,0xf8,0xc6,0x8c,0x99,0x99,
 0x09,0x18,0x77,0x33,0x33,0x63,0xdc,0xcc,0xc0,0xc1,0x8c,0x31,0x66,0x36,0xb3,
 0xcd,0x00,0x00,0x00,0x00,0x00,0xc6,0x8c,0x31,0x60,0x6c,0x33,0x33,0x03,0x06,
 0xdc,0xcc,0xcc,0x00,0x06,0x86,0x01,0x18,0x02,0x37,0x30,0x00,0x00,0x00,0x00,
 0x00,0x00,0x00,0x00,0x33,0x18,0x06,0x4c,0xcc,0xcc,0x40,0x46,0x80,0x61,0x46,
 0x00,0x00,0x00,0x00,0x00,0x00,0x00,0x00,0x00,0xf8,0xc6,0x0c,0x98,0x81,0x05,
 0x18,0x33,0x03,0x33,0x63,0xcc,0xcc,0x80,0xc7,0x8c,0x31,0x6c,0x03,0x73,0xcc,
 0x00,0x00,0x00,0x00,0x00,0xc6,0x8c,0x31,0x60,0x1c,0x33,0x33,0x00,0x06,0x78,
 0xcc,0xcc,0x00,0x03,0x83,0x01,0x18,0x1e,0x1e,0x1c,0x00,0x00,0x00,0x00,0x00,
 0x00,0x00,0x00,0x13,0x18,0x06,0x3c,0xcc,0x58,0x20,0xc6,0x83,0xc1,0xc7,0x03,
 0x00,0x00,0x00,0x00,0x00,0x00,0x00,0x00,0xf8,0xc6,0x0c,0x9f,0x81,0x07,0x18,
 0x33,0xe3,0x33,0x63,0xcc,0xcc,0x00,0xce,0x8c,0x31,0x6c,0xe3,0x33,0xfc,0x00,
 0x00,0x00,0x00,0x00,0xc6,0x8c,0x31,0x60,0x0c,0x3f,0x3f,0x00,0x06,0xec,0xcc,
 0xcc,0x80,0x81,0x81,0x01,0x0c,0x30,0x3b,0x30,0x00,0x00,0x00,0x00,0x00,0x00,
 0x00,0x00,0x0f,0x18,0x06,0x4c,0xcc,0x30,0xe0,0x0f,0x86,0x01,0x06,0x06,0x00,
 0x00,0x00,0x00,0x00,0x00,0x00,0x00,0xf8,0xc6,0x8c,0x99,0x81,0x0d,0x18,0x33,
 0x33,0xb3,0x63,0xcc,0xec,0x00,0xcc,0x8c,0x31,0xfc,0x33,0x33,0x0c,0x00,0x00,
 0x00,0x00,0x00,0xc6,0x8c,0x31,0x60,0x0c,0x03,0x03,0x00,0x06,0xcc,0xcc,0xcc,
 0xc0,0xc0,0x80,0x01,0x0c,0x30,0x33,0x30,0x00,0x00,0x00,0x00,0x00,0x00,0x00,
 0x00,0x03,0x18,0x06,0xcc,0xcc,0x68,0xe0,0x0f,0x86,0x01,0x06,0x06,0x00,0x00,
 0x00,0x00,0x00,0x00,0x00,0x00,0xf8,0x66,0x8c,0x99,0x91,0x19,0x18,0x33,0x33,
 0x63,0x63,0xcc,0xd8,0xc0,0xcc,0x8c,0x31,0x98,0x31,0x33,0x8c,0x00,0x00,0x00,
 0x00,0x00,0xc6,0x8c,0x31,0x60,0x0c,0x23,0x23,0x03,0x86,0xcd,0xcc,0xcc,0xec,
 0xe7,0x87,0x61,0x06,0x33,0x33,0x33,0x00,0x00,0x00,0x00,0x00,0x00,0x00,0x00,
 0x83,0x31,0x03,0xcc,0xcc,0xcc,0x00,0x66,0x86,0x61,0x66,0x06,0x00,0x00,0x00,
 0x00,0x00,0x00,0x00,0x00,0xf8,0x3e,0x38,0x37,0x8f,0x19,0x18,0x33,0xe3,0x06,
 0x63,0xcc,0xc0,0x80,0x87,0x87,0xe1,0x98,0xe1,0x36,0x78,0x00,0x00,0x00,0x00,
 0x00,0x9c,0x87,0x31,0x60,0x0c,0x1e,0x1e,0x03,0x86,0x79,0x78,0x78,0xec,0xe7,
 0x87,0x61,0x06,0x1e,0x1e,0x1e,0x00,0x00,0x00,0x00,0x00,0x00,0x00,0x00,0x83,
 0xe1,0x01,0x7c,0x78,0xcc,0x00,0xc6,0x83,0xc1,0xc3,0x03,0x00,0x00,0x00,0x00,
 0x00,0x00,0x00,0x00,0xf8,0x00,0x00,0x00,0x00,0x00,0x00,0x00,0x00,0x30,0x03,
 0x00,0xcc,0x00,0x00,0x00,0x00,0x00,0x00,0x00,0x00,0x00,0x00,0x00,0x00,0x00,
 0x00,0x00,0x00,0x00,0x00,0x00,0x00,0x00,0x00,0x00,0x00,0x00,0x00,0x00,0x00,
 0x00,0x00,0x00,0x00,0x00,0x00,0x00,0x00,0x00,0x00,0x00,0x00,0x00,0x00,0x00,
 0x00,0x00,0x00,0x00,0x00,0x00,0x00,0x00,0x00,0x00,0x00,0x00,0x00,0x00,0x00,
 0x00,0x00,0x00,0xf8,0x00,0x00,0x00,0x00,0x00,0x00,0x00,0x00,0xe0,0x01,0x00,
 0x78,0x00,0x00,0x00,0x00,0x00,0x00,0x00,0x00,0x00,0x00,0x00,0x00,0x00,0x00,
 0x00,0x00,0x00,0x00,0x00,0x00,0x00,0x00,0x00,0x00,0x00,0x00,0x00,0x00,0x00,
 0x00,0x00,0x00,0x00,0x00,0x00,0x00,0x00,0x00,0x00,0x00,0x00,0x00,0x00,0x00,
 0x00,0x00,0x00,0x00,0x00,0x00,0x00,0x00,0x00,0x00,0x00,0x00,0x00,0x00,0x00,
 0x00,0x00,0xf8,0x00,0x00,0x00,0x00,0x00,0x00,0x00,0x00,0x00,0x00,0x00,0x00,
 0x00,0x00,0x00,0x00,0x00,0x00,0x00,0x00,0x00,0x00,0x00,0x00,0x00,0x00,0x00,
 0x00,0x00,0x00,0x00,0x00,0x00,0x00,0x00,0x00,0x00,0x00,0x00,0x00,0x00,0x00,
 0x00,0x00,0x00,0x00,0x00,0x00,0x00,0x00,0x00,0x00,0x00,0x00,0x00,0x00,0x00,
 0x00,0x00,0x00,0x00,0x00,0x00,0x00,0x00,0x00,0x00,0x00,0x00,0x00,0x00,0x00,
 0x00,0xf8,0x00,0x00,0x00,0xc0,0x18,0x00,0x0c,0x00,0x00,0x18,0x00,0x00,0x03,
 0x00,0x00,0x06,0x00,0x00,0x00,0x00,0x00,0x00,0x00,0x00,0x00,0x00,0x00,0x0c,
 0x00,0x00,0xc6,0x01,0x00,0x00,0x00,0x00,0x00,0x00,0x00,0x00,0x00,0x00,0x00,
 0x00,0x00,0x00,0x00,0x00,0x00,0x00,0x00,0x00,0x00,0x00,0x00,0x80,0x31,0x00,
 0x00,0x00,0x00,0x00,0x00,0x00,0x00,0x00,0x00,0x00,0x00,0x00,0x00,0x00,0x00,
 0xf8,0x00,0x00,0x00,0xc0,0x18,0x00,0x8c,0x00,0x00,0x18,0xf0,0x01,0x23,0x00,
 0x00,0x06,0x00,0x00,0x00,0x00,0x00,0x00,0x00,0x00,0x00,0x00,0x00,0x0c,0x00,
 0x00,0x66,0x00,0x00,0x00,0x00,0x0c,0xf0,0xf0,0xf0,0xc0,0x8f,0xc7,0x0f,0x60,
 0x3c,0x3c,0x3c,0x00,0x00,0x00,0x00,0x00,0x00,0xc7,0x01,0x80,0x31,0x00,0x00,
 0x00,0x00,0x03,0x63,0xc0,0xc7,0xe3,0x07,0x06,0x06,0xc0,0x87,0xc1,0xc3,0xff,
 0x00,0x00,0x00,0x00,0x18,0x00,0xcc,0x00,0x00,0x18,0x18,0x03,0x33,0x00,0x00,
 0x06,0x00,0x00,0x00,0x00,0x00,0x00,0x00,0x00,0x00,0x00,0x00,0x00,0x00,0x00,
 0x63,0x00,0x00,0x00,0x08,0x0f,0x98,0x99,0x99,0xc1,0xcf,0xcc,0x0f,0x70,0x66,
 0x66,0x66,0x00,0x00,0x00,0x00,0x00,0x00,0xc7,0x01,0x80,0x01,0x00,0x00,0x00,
 0x00,0x33,0x63,0xc0,0x67,0xe6,0x07,0x07,0x07,0xc0,0xe7,0x61,0xc6,0xff,0x1e,
 0x36,0xc3,0xc3,0x98,0x81,0xef,0xf3,0xf0,0x98,0xcd,0xe3,0xfb,0x3c,0x3c,0x66,
 0xf0,0x78,0xd8,0x0c,0x00,0x00,0x00,0x00,0x00,0x66,0x3c,0x8c,0xc7,0x03,0xf3,
 0x79,0xcc,0x06,0x08,0x0c,0x18,0x98,0x99,0x01,0xcc,0x00,0x0c,0x68,0x66,0x66,
 0x66,0x00,0x00,0x00,0x00,0x00,0x00,0xc7,0xf1,0xf0,0x31,0x3e,0x1e,0x36,0x00,
 0x33,0x63,0x40,0x00,0x06,0x86,0x86,0x06,0x40,0x80,0x61,0x46,0xf8,0x33,0xee,
 0x66,0xc6,0x98,0xc1,0xcc,0x98,0x99,0x99,0x6c,0x33,0x33,0x66,0x66,0x26,0x98,
 0xcd,0xb8,0x1b,0x00,0x00,0x00,0x00,0x00,0x66,0x66,0xcc,0x6c,0x86,0x61,0xcc,
 0xcc,0x06,0x08,0x0c,0x18,0x98,0xb9,0x01,0xc6,0x00,0x06,0x64,0x66,0x66,0x66,
 0x00,0x00,0x00,0x00,0x00,0x00,0xad,0x99,0x99,0x31,0x03,0x33,0x6e,0x00,0xb6,
 0x61,0x40,0x00,0x06,0x43,0x46,0x06,0x40,0x80,0x61,0x46,0xf8,0x33,0x66,0x06,
 0xc6,0x18,0xc0,0xcc,0x80,0x19,0x58,0x6c,0x33,0x33,0x60,0x06,0x16,0x18,0xcc,
 0x98,0x19,0x00,0x00,0x00,0x00,0x00,0x66,0x66,0xcc,0x60,0xc6,0x61,0xc0,0x58,
 0x00,0x7f,0x0c,0xf8,0x98,0xf1,0x00,0xc6,0x07,0x06,0x62,0x66,0x66,0x66,0x00,
 0x00,0x00,0x00,0x00,0x00,0xad,0x81,0x99,0x31,0x07,0x33,0x66,0x00,0xb6,0x61,
 0xc0,0x83,0x03,0x23,0x26,0xe6,0xcf,0x83,0xc1,0xc7,0xfb,0x3f,0x66,0xc6,0xc7,
 0x18,0xc0,0xcc,0xf0,0x19,0x78,0x6c,0x33,0x33,0x7c,0x06,0x1e,0x18,0xcc,0x98,
 0x19,0x00,0x00,0x00,0x00,0x00,0x2c,0x66,0xcc,0xe0,0xc7,0x60,0xf8,0x30,0x00,
 0x08,0x0c,0x98,0x99,0xd9,0x01,0xc3,0x0c,0x03,0xfe,0x66,0x66,0x66,0x00,0x00,
 0x00,0x00,0x00,0x00,0xad,0xf1,0x99,0x31,0x1e,0x33,0x66,0x00,0xfe,0x61,0x00,
 0x06,0x86,0xe1,0xef,0x0f,0x00,0x86,0x01,0x06,0xfe,0x03,0x66,0x66,0xc6,0x18,
 0xc0,0xcc,0x98,0x19,0xd8,0xcc,0x36,0x33,0x66,0x06,0x36,0x18,0xcc,0x98,0x19,
 0x00,0x00,0x00,0x00,0x00,0x2c,0x66,0xcc,0x60,0x60,0x60,0xcc,0x68,0x00,0x08,
 0x0c,0x98,0x99,0x99,0x01,0xc3,0x0c,0x03,0xfe,0x66,0x66,0x66,0x00,0x00,0x00,
 0x00,0x00,0x00,0x99,0x99,0x99,0x31,0x38,0x33,0x66,0x00,0xcc,0x60,0x00,0x06,
 0x86,0xe1,0xef,0x0f,0x00,0x86,0x01,0x06,0xfe,0x23,0x66,0x66,0xc6,0x98,0xc1,
 0xce,0x98,0x19,0x99,0x19,0xb0,0x33,0x66,0x46,0x66,0x1b,0xcd,0x98,0x19,0x00,
 0x00,0x00,0x00,0x00,0x18,0x66,0xcc,0x68,0x64,0x60,0xcc,0xcc,0x06,0x08,0x0c,
 0x9b,0x99,0x99,0x99,0xc1,0x8c,0xc1,0x60,0x66,0x66,0x66,0x00,0x00,0x00,0x00,
 0x00,0x00,0x99,0x99,0xd9,0x31,0x30,0x33,0x66,0x06,0xcc,0x60,0x60,0x66,0xc6,
 0x00,0x06,0x06,0x60,0x86,0x61,0x66,0xfe,0x1e,0x66,0xc6,0xcd,0x98,0x81,0x8d,
 0x73,0xf3,0x98,0xf1,0x63,0xe3,0xdc,0x3c,0x66,0xf3,0x78,0x98,0x19,0x00,0x00,
 0x00,0x00,0x00,0x18,0x3c,0x8c,0xc7,0x33,0x60,0xb8,0xcd,0x06,0x00,0x0c,0xf3,
 0xf0,0xf0,0x98,0x81,0x87,0xc1,0x60,0x3c,0x3c,0x3c,0x00,0x00,0x00,0x00,0x00,
 0x00,0x81,0x71,0xb3,0x31,0x1f,0x1e,0x66,0x06,0xcc,0x60,0xc0,0xc3,0xc3,0x00,
 0x06,0x06,0xc0,0x83,0xc1,0xc3,0xfb,0x00,0x00,0x00,0x00,0x00,0x00,0x00,0x00,
 0x00,0x00,0x00,0x00,0x00,0x00,0x00,0x00,0x00,0x00,0x00,0x00,0x00,0x00,0x00,
 0x00,0x00,0x00,0x00,0x00,0x00,0x30,0x00,0x00,0x00,0x00,0x00,0x00,0x00,0x00,
 0x00,0x00,0x00,0x00,0x00,0x00,0x00,0x00,0x00,0x00,0x00,0x00,0x00,0x00,0x00,
 0x00,0x00,0x00,0x00,0x00,0x00,0x00,0x04,0x00,0x00,0x00,0x00,0x00,0x00,0x00,
 0x00,0x00,0x00,0x00,0x00,0xf8,0x00,0x00,0x00,0x00,0x00,0x00,0x00,0x00,0x00,
 0x00,0x00,0x00,0x00,0x00,0x00,0x00,0x00,0x00,0x00,0x00,0x00,0x00,0x00,0x00,
 0x00,0x00,0x00,0x00,0x00,0x00,0x00,0x00,0x00,0x00,0x00,0x00,0x00,0x00,0x00,
 0x00,0x00,0x00,0x00,0x00,0x00,0x00,0x00,0x00,0x00,0x00,0x00,0x00,0x00,0x00,
 0x00,0x00,0x00,0x00,0x00,0x00,0x02,0x00,0x00,0x00,0x00,0x00,0x00,0x00,0x00,
 0x00,0x00,0x00,0x00,0xf8};
